<svg width="90" height="90" viewBox="0 0 90 90" fill="none" xmlns="http://www.w3.org/2000/svg">
<mask id="path-1-inside-1_4597_3470" fill="white">
<path d="M86.164 31.8864L78.4068 24.1291C77.781 23.5117 76.9465 23.1512 76.0679 23.1187C75.1894 23.0861 74.3305 23.3839 73.6607 23.9534C72.6266 24.8336 71.2996 25.2931 69.9426 25.2411C68.5856 25.189 67.2977 24.629 66.3342 23.6721C65.3778 22.7086 64.8181 21.4211 64.766 20.0645C64.7139 18.7079 65.1732 17.3813 66.0529 16.3473C66.6224 15.6775 66.9202 14.8186 66.8876 13.9401C66.8551 13.0615 66.4946 12.2271 65.8771 11.6012L58.1129 3.8352C57.4567 3.18031 56.5676 2.8125 55.6405 2.8125C54.7135 2.8125 53.8243 3.18031 53.1682 3.8352L40.802 16.1996C40.0385 16.9659 39.4627 17.8984 39.1197 18.9243C39.053 19.1215 38.9416 19.3007 38.7944 19.4479C38.6471 19.5952 38.4679 19.7065 38.2707 19.7733C37.2445 20.1162 36.3118 20.6927 35.5461 21.4573L3.8352 53.1682C3.18031 53.8243 2.8125 54.7135 2.8125 55.6406C2.8125 56.5676 3.18031 57.4568 3.8352 58.1129L11.6012 65.8701C12.2271 66.4876 13.0615 66.8481 13.9401 66.8806C14.8186 66.9132 15.6775 66.6154 16.3473 66.0459C17.3789 65.1586 18.7078 64.6939 20.0676 64.745C21.4273 64.796 22.7176 65.3591 23.6798 66.3213C24.642 67.2834 25.205 68.5737 25.2561 69.9335C25.3071 71.2933 24.8424 72.6221 23.9551 73.6537C23.3857 74.3235 23.0879 75.1824 23.1204 76.061C23.1529 76.9395 23.5135 77.774 24.1309 78.3998L31.8881 86.1571C32.5443 86.8119 33.4334 87.1797 34.3605 87.1797C35.2875 87.1797 36.1767 86.8119 36.8328 86.1571L68.5437 54.4461C69.3079 53.6808 69.8843 52.7488 70.2277 51.7233C70.2942 51.5254 70.4056 51.3456 70.5532 51.198C70.7008 51.0504 70.8806 50.939 71.0785 50.8725C72.1038 50.5294 73.0358 49.9537 73.8014 49.1903L86.1658 36.8241C86.8183 36.168 87.1844 35.2802 87.1841 34.3548C87.1838 33.4295 86.817 32.542 86.164 31.8864ZM46.0209 26.6744C45.7597 26.9357 45.4497 27.1429 45.1084 27.2843C44.7671 27.4257 44.4013 27.4984 44.0319 27.4984C43.6625 27.4984 43.2968 27.4257 42.9555 27.2843C42.6142 27.1429 42.3042 26.9357 42.043 26.6744L40.0197 24.6512C39.5051 24.1211 39.2198 23.4098 39.2253 22.671C39.2309 21.9322 39.5269 21.2253 40.0495 20.703C40.572 20.1807 41.279 19.885 42.0178 19.8798C42.7566 19.8745 43.4678 20.1602 43.9977 20.675L46.0209 22.6965C46.2821 22.9577 46.4894 23.2678 46.6307 23.609C46.7721 23.9503 46.8449 24.3161 46.8449 24.6855C46.8449 25.0549 46.7721 25.4207 46.6307 25.7619C46.4894 26.1032 46.2821 26.4133 46.0209 26.6744ZM53.7553 34.4088C53.2279 34.9359 52.5128 35.2319 51.7672 35.2319C51.0216 35.2319 50.3065 34.9359 49.7791 34.4088L47.8455 32.4752C47.5843 32.214 47.3771 31.904 47.2358 31.5627C47.0944 31.2214 47.0217 30.8556 47.0217 30.4863C47.0217 30.1169 47.0944 29.7511 47.2358 29.4098C47.3771 29.0686 47.5843 28.7585 47.8455 28.4973C48.373 27.9698 49.0885 27.6734 49.8345 27.6734C50.2039 27.6734 50.5696 27.7462 50.9109 27.8876C51.2522 28.0289 51.5622 28.2361 51.8234 28.4973L53.757 30.4309C54.0192 30.692 54.2272 31.0024 54.3692 31.3441C54.5112 31.6858 54.5844 32.0521 54.5845 32.4221C54.5847 32.7922 54.5119 33.1586 54.3702 33.5004C54.2285 33.8422 54.0207 34.1527 53.7588 34.4141L53.7553 34.4088ZM61.4896 42.1432C61.2285 42.4044 60.9184 42.6117 60.5771 42.753C60.2359 42.8944 59.8701 42.9672 59.5007 42.9672C59.1313 42.9672 58.7655 42.8944 58.4242 42.753C58.083 42.6117 57.7729 42.4044 57.5117 42.1432L55.5781 40.2096C55.0635 39.6795 54.7782 38.9682 54.7837 38.2294C54.7893 37.4906 55.0853 36.7837 55.6078 36.2614C56.1304 35.7391 56.8374 35.4434 57.5762 35.4382C58.315 35.4329 59.0262 35.7186 59.5561 36.2334L61.4896 38.167C61.7525 38.4277 61.9613 38.7378 62.1041 39.0794C62.2468 39.421 62.3207 39.7874 62.3216 40.1577C62.3224 40.5279 62.2501 40.8947 62.1088 41.2369C61.9676 41.5791 61.7601 41.8901 61.4984 42.152L61.4896 42.1432ZM69.2996 49.9725C69.0384 50.2337 68.7283 50.4409 68.3871 50.5823C68.0458 50.7237 67.68 50.7965 67.3106 50.7965C66.9412 50.7965 66.5755 50.7237 66.2342 50.5823C65.8929 50.4409 65.5828 50.2337 65.3217 49.9725L63.3107 47.951C63.044 47.6906 62.8317 47.3798 62.6862 47.0366C62.5407 46.6934 62.4648 46.3248 62.463 45.952C62.4613 45.5793 62.5336 45.2099 62.6758 44.8653C62.8181 44.5208 63.0274 44.208 63.2916 43.945C63.5558 43.6821 63.8697 43.4743 64.2149 43.3337C64.5601 43.1932 64.9299 43.1226 65.3026 43.1262C65.6753 43.1298 66.0437 43.2075 66.3861 43.3547C66.7286 43.5018 67.0384 43.7156 67.2975 43.9836L69.3101 46.0033C69.5713 46.2646 69.7784 46.5748 69.9196 46.9161C70.0608 47.2575 70.1334 47.6233 70.1333 47.9927C70.1331 48.3621 70.0602 48.7278 69.9186 49.069C69.7771 49.4102 69.5697 49.7202 69.3084 49.9813L69.2996 49.9725Z"/>
</mask>
<path d="M86.164 31.8864L78.4068 24.1291C77.781 23.5117 76.9465 23.1512 76.0679 23.1187C75.1894 23.0861 74.3305 23.3839 73.6607 23.9534C72.6266 24.8336 71.2996 25.2931 69.9426 25.2411C68.5856 25.189 67.2977 24.629 66.3342 23.6721C65.3778 22.7086 64.8181 21.4211 64.766 20.0645C64.7139 18.7079 65.1732 17.3813 66.0529 16.3473C66.6224 15.6775 66.9202 14.8186 66.8876 13.9401C66.8551 13.0615 66.4946 12.2271 65.8771 11.6012L58.1129 3.8352C57.4567 3.18031 56.5676 2.8125 55.6405 2.8125C54.7135 2.8125 53.8243 3.18031 53.1682 3.8352L40.802 16.1996C40.0385 16.9659 39.4627 17.8984 39.1197 18.9243C39.053 19.1215 38.9416 19.3007 38.7944 19.4479C38.6471 19.5952 38.4679 19.7065 38.2707 19.7733C37.2445 20.1162 36.3118 20.6927 35.5461 21.4573L3.8352 53.1682C3.18031 53.8243 2.8125 54.7135 2.8125 55.6406C2.8125 56.5676 3.18031 57.4568 3.8352 58.1129L11.6012 65.8701C12.2271 66.4876 13.0615 66.8481 13.9401 66.8806C14.8186 66.9132 15.6775 66.6154 16.3473 66.0459C17.3789 65.1586 18.7078 64.6939 20.0676 64.745C21.4273 64.796 22.7176 65.3591 23.6798 66.3213C24.642 67.2834 25.205 68.5737 25.2561 69.9335C25.3071 71.2933 24.8424 72.6221 23.9551 73.6537C23.3857 74.3235 23.0879 75.1824 23.1204 76.061C23.1529 76.9395 23.5135 77.774 24.1309 78.3998L31.8881 86.1571C32.5443 86.8119 33.4334 87.1797 34.3605 87.1797C35.2875 87.1797 36.1767 86.8119 36.8328 86.1571L68.5437 54.4461C69.3079 53.6808 69.8843 52.7488 70.2277 51.7233C70.2942 51.5254 70.4056 51.3456 70.5532 51.198C70.7008 51.0504 70.8806 50.939 71.0785 50.8725C72.1038 50.5294 73.0358 49.9537 73.8014 49.1903L86.1658 36.8241C86.8183 36.168 87.1844 35.2802 87.1841 34.3548C87.1838 33.4295 86.817 32.542 86.164 31.8864ZM46.0209 26.6744C45.7597 26.9357 45.4497 27.1429 45.1084 27.2843C44.7671 27.4257 44.4013 27.4984 44.0319 27.4984C43.6625 27.4984 43.2968 27.4257 42.9555 27.2843C42.6142 27.1429 42.3042 26.9357 42.043 26.6744L40.0197 24.6512C39.5051 24.1211 39.2198 23.4098 39.2253 22.671C39.2309 21.9322 39.5269 21.2253 40.0495 20.703C40.572 20.1807 41.279 19.885 42.0178 19.8798C42.7566 19.8745 43.4678 20.1602 43.9977 20.675L46.0209 22.6965C46.2821 22.9577 46.4894 23.2678 46.6307 23.609C46.7721 23.9503 46.8449 24.3161 46.8449 24.6855C46.8449 25.0549 46.7721 25.4207 46.6307 25.7619C46.4894 26.1032 46.2821 26.4133 46.0209 26.6744ZM53.7553 34.4088C53.2279 34.9359 52.5128 35.2319 51.7672 35.2319C51.0216 35.2319 50.3065 34.9359 49.7791 34.4088L47.8455 32.4752C47.5843 32.214 47.3771 31.904 47.2358 31.5627C47.0944 31.2214 47.0217 30.8556 47.0217 30.4863C47.0217 30.1169 47.0944 29.7511 47.2358 29.4098C47.3771 29.0686 47.5843 28.7585 47.8455 28.4973C48.373 27.9698 49.0885 27.6734 49.8345 27.6734C50.2039 27.6734 50.5696 27.7462 50.9109 27.8876C51.2522 28.0289 51.5622 28.2361 51.8234 28.4973L53.757 30.4309C54.0192 30.692 54.2272 31.0024 54.3692 31.3441C54.5112 31.6858 54.5844 32.0521 54.5845 32.4221C54.5847 32.7922 54.5119 33.1586 54.3702 33.5004C54.2285 33.8422 54.0207 34.1527 53.7588 34.4141L53.7553 34.4088ZM61.4896 42.1432C61.2285 42.4044 60.9184 42.6117 60.5771 42.753C60.2359 42.8944 59.8701 42.9672 59.5007 42.9672C59.1313 42.9672 58.7655 42.8944 58.4242 42.753C58.083 42.6117 57.7729 42.4044 57.5117 42.1432L55.5781 40.2096C55.0635 39.6795 54.7782 38.9682 54.7837 38.2294C54.7893 37.4906 55.0853 36.7837 55.6078 36.2614C56.1304 35.7391 56.8374 35.4434 57.5762 35.4382C58.315 35.4329 59.0262 35.7186 59.5561 36.2334L61.4896 38.167C61.7525 38.4277 61.9613 38.7378 62.1041 39.0794C62.2468 39.421 62.3207 39.7874 62.3216 40.1577C62.3224 40.5279 62.2501 40.8947 62.1088 41.2369C61.9676 41.5791 61.7601 41.8901 61.4984 42.152L61.4896 42.1432ZM69.2996 49.9725C69.0384 50.2337 68.7283 50.4409 68.3871 50.5823C68.0458 50.7237 67.68 50.7965 67.3106 50.7965C66.9412 50.7965 66.5755 50.7237 66.2342 50.5823C65.8929 50.4409 65.5828 50.2337 65.3217 49.9725L63.3107 47.951C63.044 47.6906 62.8317 47.3798 62.6862 47.0366C62.5407 46.6934 62.4648 46.3248 62.463 45.952C62.4613 45.5793 62.5336 45.2099 62.6758 44.8653C62.8181 44.5208 63.0274 44.208 63.2916 43.945C63.5558 43.6821 63.8697 43.4743 64.2149 43.3337C64.5601 43.1932 64.9299 43.1226 65.3026 43.1262C65.6753 43.1298 66.0437 43.2075 66.3861 43.3547C66.7286 43.5018 67.0384 43.7156 67.2975 43.9836L69.3101 46.0033C69.5713 46.2646 69.7784 46.5748 69.9196 46.9161C70.0608 47.2575 70.1334 47.6233 70.1333 47.9927C70.1331 48.3621 70.0602 48.7278 69.9186 49.069C69.7771 49.4102 69.5697 49.7202 69.3084 49.9813L69.2996 49.9725Z" stroke="#2B293D" stroke-width="8" mask="url(#path-1-inside-1_4597_3470)"/>
</svg>
